<svg xmlns="http://www.w3.org/2000/svg" width="179.95" height="180.23" viewBox="0 0 179.95 180.23"><title>tdc-logo</title><path d="M168.37,92.67A72.53,72.53,0,0,1,240.63,165H271.8A103.43,103.43,0,0,0,168.37,61.56Z" transform="translate(-144.03 -9)" style="fill:#00a7b6"/><path d="M168.54,9V41.1c67.63,0,123.36,52.89,123.36,123.74,0,0,0,.1,0,.14H324s0-.09,0-.14C324,74.13,260.63,9,168.54,9Z" transform="translate(-144.03 -9)" style="fill:#3ab8dc"/><path d="M218.06,139.18h-24v-24a.28.28,0,0,0-.27-.26H168.57a.27.27,0,0,0-.28.26v24h-24a.29.29,0,0,0-.27.29v25.25a.3.3,0,0,0,.27.25h24v24a.28.28,0,0,0,.28.26H193.8a.29.29,0,0,0,.27-.26V165h24a.29.29,0,0,0,.28-.25V139.47A.29.29,0,0,0,218.06,139.18Z" transform="translate(-144.03 -9)" style="fill:#18755d"/></svg>